<svg width="256" height="263" viewBox="0 0 256 263" fill="none" xmlns="http://www.w3.org/2000/svg">
<rect x="0.55925" y="0.5" width="254.882" height="261.175" rx="4.5" fill="#F4F4F4"/>
<ellipse cx="53.5952" cy="20.9313" rx="0.938136" ry="0.931286" fill="#383838"/>
<ellipse cx="63.7807" cy="37.4284" rx="0.938136" ry="0.931286" fill="#383838"/>
<ellipse cx="43.1417" cy="38.2266" rx="0.938136" ry="0.931286" fill="#383838"/>
<ellipse cx="56.2756" cy="20.9313" rx="0.938136" ry="0.931286" fill="#383838"/>
<ellipse cx="62.7085" cy="40.0892" rx="0.938136" ry="0.931286" fill="#383838"/>
<ellipse cx="41.8015" cy="35.8319" rx="0.938136" ry="0.931286" fill="#383838"/>
<ellipse cx="54.8014" cy="23.459" rx="0.804117" ry="0.798245" fill="#383838"/>
<ellipse cx="60.9663" cy="37.5614" rx="0.804117" ry="0.798245" fill="#383838"/>
<ellipse cx="44.3479" cy="35.6988" rx="0.804117" ry="0.798245" fill="#383838"/>
<ellipse cx="58.956" cy="21.7296" rx="0.670097" ry="0.665204" fill="#383838"/>
<ellipse cx="40.9974" cy="33.1711" rx="0.670097" ry="0.665204" fill="#383838"/>
<ellipse cx="57.3478" cy="23.8582" rx="0.670097" ry="0.665204" fill="#383838"/>
<ellipse cx="43.6778" cy="33.4372" rx="0.670097" ry="0.665204" fill="#383838"/>
<ellipse cx="61.1003" cy="22.7939" rx="0.670097" ry="0.665204" fill="#383838"/>
<ellipse cx="40.7294" cy="30.5102" rx="0.670097" ry="0.665204" fill="#383838"/>
<ellipse cx="61.1003" cy="41.9518" rx="0.670097" ry="0.665204" fill="#383838"/>
<ellipse cx="59.6261" cy="25.0556" rx="0.536078" ry="0.532163" fill="#383838"/>
<ellipse cx="43.2757" cy="30.9094" rx="0.536078" ry="0.532163" fill="#383838"/>
<ellipse cx="59.6261" cy="39.6901" rx="0.536078" ry="0.532163" fill="#383838"/>
<ellipse cx="56.4096" cy="26.1199" rx="0.536078" ry="0.532163" fill="#383838"/>
<ellipse cx="45.9561" cy="33.038" rx="0.536078" ry="0.532163" fill="#383838"/>
<ellipse cx="58.0178" cy="37.8275" rx="0.536078" ry="0.532163" fill="#383838"/>
<ellipse cx="59.09" cy="27.1842" rx="0.536078" ry="0.532163" fill="#383838"/>
<ellipse cx="45.6881" cy="30.3772" rx="0.536078" ry="0.532163" fill="#383838"/>
<ellipse cx="55.3375" cy="42.3509" rx="0.536078" ry="0.532163" fill="#383838"/>
<ellipse cx="56.1416" cy="39.9561" rx="0.536078" ry="0.532163" fill="#383838"/>
<ellipse cx="61.5024" cy="26.6521" rx="0.536078" ry="0.532163" fill="#383838"/>
<ellipse cx="44.0798" cy="28.5146" rx="0.536078" ry="0.532163" fill="#383838"/>
<ellipse cx="53.7292" cy="45.0117" rx="0.536078" ry="0.532163" fill="#383838"/>
<ellipse cx="57.7498" cy="41.2865" rx="0.536078" ry="0.532163" fill="#383838"/>
<ellipse cx="63.1106" cy="24.7895" rx="0.536078" ry="0.532163" fill="#383838"/>
<ellipse cx="41.3994" cy="27.9825" rx="0.536078" ry="0.532163" fill="#383838"/>
<ellipse cx="58.822" cy="43.4152" rx="0.536078" ry="0.532163" fill="#383838"/>
<ellipse cx="61.9044" cy="36.0979" rx="0.134019" ry="0.133041" fill="#383838"/>
<ellipse cx="51.987" cy="23.3261" rx="0.134019" ry="0.133041" fill="#383838"/>
<ellipse cx="46.6262" cy="38.2266" rx="0.134019" ry="0.133041" fill="#383838"/>
<ellipse cx="65.2549" cy="34.6345" rx="0.268039" ry="0.266082" fill="#383838"/>
<ellipse cx="50.7808" cy="25.8538" rx="0.268039" ry="0.266082" fill="#383838"/>
<ellipse cx="51.5849" cy="20.7983" rx="0.268039" ry="0.266082" fill="#383838"/>
<ellipse cx="48.1004" cy="40.2222" rx="0.268039" ry="0.266082" fill="#383838"/>
<ellipse cx="62.8426" cy="33.8363" rx="0.268039" ry="0.266082" fill="#383838"/>
<ellipse cx="49.4406" cy="23.4591" rx="0.268039" ry="0.266082" fill="#383838"/>
<ellipse cx="44.8839" cy="39.9562" rx="0.268039" ry="0.266082" fill="#383838"/>
<ellipse cx="60.1622" cy="33.5702" rx="0.268039" ry="0.266082" fill="#383838"/>
<ellipse cx="49.4406" cy="38.0936" rx="0.268039" ry="0.266082" fill="#383838"/>
<ellipse cx="60.5642" cy="31.3085" rx="0.402058" ry="0.399123" fill="#383838"/>
<ellipse cx="48.5025" cy="26.7851" rx="0.402058" ry="0.399123" fill="#383838"/>
<ellipse cx="47.1623" cy="24.6564" rx="0.402058" ry="0.399123" fill="#383838"/>
<ellipse cx="48.5025" cy="43.5482" rx="0.402058" ry="0.399123" fill="#383838"/>
<ellipse cx="51.4509" cy="39.291" rx="0.402058" ry="0.399123" fill="#383838"/>
<ellipse cx="63.2446" cy="31.3085" rx="0.402058" ry="0.399123" fill="#383838"/>
<ellipse cx="46.6262" cy="21.9956" rx="0.402058" ry="0.399123" fill="#383838"/>
<ellipse cx="50.1107" cy="41.4196" rx="0.402058" ry="0.399123" fill="#383838"/>
<ellipse cx="65.657" cy="32.1068" rx="0.402058" ry="0.399123" fill="#383838"/>
<ellipse cx="48.7705" cy="21.1974" rx="0.402058" ry="0.399123" fill="#383838"/>
<ellipse cx="46.6262" cy="42.2178" rx="0.402058" ry="0.399123" fill="#383838"/>
<ellipse cx="65.5229" cy="29.3128" rx="0.536078" ry="0.532163" fill="#383838"/>
<ellipse cx="52.6571" cy="42.0848" rx="0.536078" ry="0.532163" fill="#383838"/>
<ellipse cx="62.8426" cy="28.7807" rx="0.536078" ry="0.532163" fill="#383838"/>
<ellipse cx="45.152" cy="26.386" rx="0.536078" ry="0.532163" fill="#383838"/>
<ellipse cx="51.0489" cy="44.4795" rx="0.536078" ry="0.532163" fill="#383838"/>
<ellipse cx="64.7188" cy="26.9182" rx="0.536078" ry="0.532163" fill="#383838"/>
<ellipse cx="44.3479" cy="23.7252" rx="0.536078" ry="0.532163" fill="#383838"/>
<ellipse cx="42.4716" cy="25.5877" rx="0.536078" ry="0.532163" fill="#383838"/>
<ellipse cx="56.4096" cy="44.7456" rx="0.536078" ry="0.532163" fill="#383838"/>
<ellipse cx="60.1622" cy="29.0468" rx="0.536078" ry="0.532163" fill="#383838"/>
<ellipse cx="46.7602" cy="28.5146" rx="0.536078" ry="0.532163" fill="#383838"/>
<ellipse cx="53.7292" cy="39.6901" rx="0.536078" ry="0.532163" fill="#383838"/>
<path fill-rule="evenodd" clip-rule="evenodd" d="M140.918 23.6004C138.38 24.358 135.826 26.4547 134.607 28.7808C133.708 30.4963 133.613 34.4305 134.42 36.5584C136.506 42.0631 143.598 44.4755 148.957 41.5025C151.64 40.0141 151.927 39.4911 150.853 38.0484C150.191 37.1597 149.917 37.1018 149.095 37.6779C145.17 40.4254 141.707 40.3669 138.829 37.5034C137.318 36 137.079 35.3916 137.079 33.0639C137.079 30.95 137.378 30.0114 138.465 28.7249C140.789 25.971 144.848 25.5194 148.248 27.636C149.182 28.217 149.529 28.217 150.232 27.6355C151.589 26.5127 151.233 25.5484 149.063 24.4654C146.234 23.0532 143.663 22.7805 140.918 23.6004ZM203.769 22.967C198.3 24.1966 194.686 29.1037 195.722 33.8911C197.135 40.4214 202.595 43.847 208.706 42.0381C215.854 39.9214 218.321 31.3079 213.295 26.0125C210.766 23.3482 207.176 22.2003 203.769 22.967ZM74.059 32.9523V42.6338H81.3305H88.602V41.023V39.4122H82.9464H77.2908V37.0207V34.6286L80.9265 34.4702C84.447 34.3161 84.5677 34.2645 84.7325 32.8347L84.9033 31.3581H81.0968H77.2908V28.9419V26.5256H82.4433H87.5964L87.4257 25.049L87.2555 23.5724L80.6572 23.4216L74.059 23.2707V32.9523ZM91.1966 23.5687C90.651 24.1309 91.8914 26.5256 92.7285 26.5256C93.2989 26.5256 93.4497 28.2073 93.4497 34.5797V42.6338H97.7237C102.402 42.6338 104.369 42.1017 106.293 40.3159C108.308 38.4462 109.238 36.146 109.284 32.92C109.318 30.5038 109.039 29.4852 107.854 27.6999C105.69 24.4391 103.842 23.6959 97.2201 23.4226C94.1095 23.2943 91.3991 23.3604 91.1966 23.5687ZM113.05 24.0696C112.873 24.532 112.822 27.7504 112.938 31.2217C113.178 38.3802 113.913 40.4361 116.755 41.9047C119.087 43.1101 123.923 43.1128 126.195 41.91C129.549 40.1349 130.108 38.4419 129.948 30.5527L129.807 23.5724H128.461H127.114L126.845 30.5527C126.697 34.3918 126.39 37.8175 126.164 38.1649C125.495 39.1926 122.065 40.0812 120.151 39.7236C116.873 39.1104 116.373 37.9635 116.072 30.3647C115.813 23.8189 115.759 23.566 114.589 23.4006C113.861 23.2975 113.244 23.566 113.05 24.0696ZM160.554 24.7473C160.784 25.9071 159.971 28.0376 157.046 33.9343C154.952 38.1568 153.238 41.8418 153.238 42.1227C153.238 43.1922 156.334 42.6397 157.143 41.4257C157.861 40.347 158.473 40.1977 162.851 40.0302C167.687 39.846 167.764 39.8627 168.393 41.2383C168.862 42.2639 169.436 42.6338 170.56 42.6338C171.401 42.6338 172.09 42.4169 172.09 42.1517C172.09 41.8864 170.178 37.5979 167.842 32.621C163.779 23.966 163.522 23.5649 161.924 23.4049C160.353 23.2471 160.271 23.3276 160.554 24.7473ZM210.363 27.6196C212.362 29.1171 212.912 30.7108 212.498 33.7971C211.957 37.8129 207.713 40.3789 203.76 39.0785C201.274 38.2602 198.652 35.1937 198.652 33.1028C198.652 26.942 205.3 23.8293 210.363 27.6196ZM104.357 28.5601C106.409 30.6053 106.823 33.6132 105.408 36.1906C104.113 38.5509 102.494 39.3945 99.24 39.4041L96.6815 39.4122V32.8937V26.3753L99.7393 26.6899C102.15 26.938 103.127 27.3337 104.357 28.5601ZM164.576 33.0231C165.489 34.8251 166.159 36.3667 166.065 36.4488C165.972 36.5315 164.415 36.7012 162.607 36.8263L159.318 37.0534L160.936 33.4001C161.827 31.3914 162.636 29.7473 162.736 29.7473C162.836 29.7473 163.664 31.2217 164.576 33.0231Z" fill="#383838"/>
<path fill-rule="evenodd" clip-rule="evenodd" d="M173.76 23.3402C173.215 23.9023 174.455 26.2971 175.292 26.2971C175.863 26.2971 176.014 27.9788 176.014 34.3512V42.4053H180.288C184.966 42.4053 186.933 41.8732 188.857 40.0874C190.872 38.2177 191.802 35.9175 191.848 32.6915C191.882 30.2753 191.603 29.2567 190.418 27.4714C188.253 24.2105 186.406 23.4674 179.784 23.1941C176.673 23.0658 173.963 23.1318 173.76 23.3402ZM187.972 35.962C189.387 33.3847 188.973 30.3768 186.921 28.3316C185.691 27.1052 184.714 26.7095 182.303 26.4614L179.245 26.1468V32.6915V39.1837L181.804 39.1756C185.058 39.166 186.677 38.3224 187.972 35.962Z" fill="#383838"/>
<ellipse cx="53.5952" cy="86.4752" rx="0.938136" ry="0.931286" fill="white"/>
<ellipse cx="63.7807" cy="102.972" rx="0.938136" ry="0.931286" fill="white"/>
<ellipse cx="43.1417" cy="103.77" rx="0.938136" ry="0.931286" fill="white"/>
<ellipse cx="56.2756" cy="86.4752" rx="0.938136" ry="0.931286" fill="white"/>
<ellipse cx="62.7085" cy="105.633" rx="0.938136" ry="0.931286" fill="white"/>
<ellipse cx="41.8015" cy="101.376" rx="0.938136" ry="0.931286" fill="white"/>
<ellipse cx="54.8014" cy="89.0029" rx="0.804117" ry="0.798245" fill="white"/>
<ellipse cx="60.9663" cy="103.105" rx="0.804117" ry="0.798245" fill="white"/>
<ellipse cx="44.3479" cy="101.243" rx="0.804117" ry="0.798245" fill="white"/>
<ellipse cx="58.956" cy="87.2735" rx="0.670097" ry="0.665204" fill="white"/>
<ellipse cx="40.9974" cy="98.7149" rx="0.670097" ry="0.665204" fill="white"/>
<ellipse cx="57.3478" cy="89.4021" rx="0.670097" ry="0.665204" fill="white"/>
<ellipse cx="43.6778" cy="98.981" rx="0.670097" ry="0.665204" fill="white"/>
<ellipse cx="61.1003" cy="88.3377" rx="0.670097" ry="0.665204" fill="white"/>
<ellipse cx="40.7294" cy="96.0541" rx="0.670097" ry="0.665204" fill="white"/>
<ellipse cx="61.1003" cy="107.496" rx="0.670097" ry="0.665204" fill="white"/>
<ellipse cx="59.6261" cy="90.5994" rx="0.536078" ry="0.532163" fill="white"/>
<ellipse cx="43.2757" cy="96.4532" rx="0.536078" ry="0.532163" fill="white"/>
<ellipse cx="59.6261" cy="105.234" rx="0.536078" ry="0.532163" fill="white"/>
<ellipse cx="56.4096" cy="91.6638" rx="0.536078" ry="0.532163" fill="white"/>
<ellipse cx="45.9561" cy="98.5819" rx="0.536078" ry="0.532163" fill="white"/>
<ellipse cx="58.0178" cy="103.371" rx="0.536078" ry="0.532163" fill="white"/>
<ellipse cx="59.09" cy="92.7281" rx="0.536078" ry="0.532163" fill="white"/>
<ellipse cx="45.6881" cy="95.921" rx="0.536078" ry="0.532163" fill="white"/>
<ellipse cx="55.3375" cy="107.895" rx="0.536078" ry="0.532163" fill="white"/>
<ellipse cx="56.1416" cy="105.5" rx="0.536078" ry="0.532163" fill="white"/>
<ellipse cx="61.5024" cy="92.1959" rx="0.536078" ry="0.532163" fill="white"/>
<ellipse cx="44.0798" cy="94.0585" rx="0.536078" ry="0.532163" fill="white"/>
<ellipse cx="53.7292" cy="110.556" rx="0.536078" ry="0.532163" fill="white"/>
<ellipse cx="57.7498" cy="106.83" rx="0.536078" ry="0.532163" fill="white"/>
<ellipse cx="63.1106" cy="90.3333" rx="0.536078" ry="0.532163" fill="white"/>
<ellipse cx="41.3994" cy="93.5263" rx="0.536078" ry="0.532163" fill="white"/>
<ellipse cx="58.822" cy="108.959" rx="0.536078" ry="0.532163" fill="white"/>
<ellipse cx="61.9044" cy="101.642" rx="0.134019" ry="0.133041" fill="white"/>
<ellipse cx="51.987" cy="88.8699" rx="0.134019" ry="0.133041" fill="white"/>
<ellipse cx="46.6262" cy="103.77" rx="0.134019" ry="0.133041" fill="white"/>
<ellipse cx="65.2549" cy="100.178" rx="0.268039" ry="0.266082" fill="white"/>
<ellipse cx="50.7808" cy="91.3977" rx="0.268039" ry="0.266082" fill="white"/>
<ellipse cx="51.5849" cy="86.3421" rx="0.268039" ry="0.266082" fill="white"/>
<ellipse cx="48.1004" cy="105.766" rx="0.268039" ry="0.266082" fill="white"/>
<ellipse cx="62.8426" cy="99.3801" rx="0.268039" ry="0.266082" fill="white"/>
<ellipse cx="49.4406" cy="89.003" rx="0.268039" ry="0.266082" fill="white"/>
<ellipse cx="44.8839" cy="105.5" rx="0.268039" ry="0.266082" fill="white"/>
<ellipse cx="60.1622" cy="99.114" rx="0.268039" ry="0.266082" fill="white"/>
<ellipse cx="49.4406" cy="103.637" rx="0.268039" ry="0.266082" fill="white"/>
<ellipse cx="60.5642" cy="96.8524" rx="0.402058" ry="0.399123" fill="white"/>
<ellipse cx="48.5025" cy="92.329" rx="0.402058" ry="0.399123" fill="white"/>
<ellipse cx="47.1623" cy="90.2003" rx="0.402058" ry="0.399123" fill="white"/>
<ellipse cx="48.5025" cy="109.092" rx="0.402058" ry="0.399123" fill="white"/>
<ellipse cx="51.4509" cy="104.835" rx="0.402058" ry="0.399123" fill="white"/>
<ellipse cx="63.2446" cy="96.8524" rx="0.402058" ry="0.399123" fill="white"/>
<ellipse cx="46.6262" cy="87.5395" rx="0.402058" ry="0.399123" fill="white"/>
<ellipse cx="50.1107" cy="106.963" rx="0.402058" ry="0.399123" fill="white"/>
<ellipse cx="65.657" cy="97.6506" rx="0.402058" ry="0.399123" fill="white"/>
<ellipse cx="48.7705" cy="86.7412" rx="0.402058" ry="0.399123" fill="white"/>
<ellipse cx="46.6262" cy="107.762" rx="0.402058" ry="0.399123" fill="white"/>
<ellipse cx="65.5229" cy="94.8567" rx="0.536078" ry="0.532163" fill="white"/>
<ellipse cx="52.6571" cy="107.629" rx="0.536078" ry="0.532163" fill="white"/>
<ellipse cx="62.8426" cy="94.3246" rx="0.536078" ry="0.532163" fill="white"/>
<ellipse cx="45.152" cy="91.9299" rx="0.536078" ry="0.532163" fill="white"/>
<ellipse cx="51.0489" cy="110.023" rx="0.536078" ry="0.532163" fill="white"/>
<ellipse cx="64.7188" cy="92.462" rx="0.536078" ry="0.532163" fill="white"/>
<ellipse cx="44.3479" cy="89.269" rx="0.536078" ry="0.532163" fill="white"/>
<ellipse cx="42.4716" cy="91.1316" rx="0.536078" ry="0.532163" fill="white"/>
<ellipse cx="56.4096" cy="110.289" rx="0.536078" ry="0.532163" fill="white"/>
<ellipse cx="60.1622" cy="94.5907" rx="0.536078" ry="0.532163" fill="white"/>
<ellipse cx="46.7602" cy="94.0585" rx="0.536078" ry="0.532163" fill="white"/>
<ellipse cx="53.7292" cy="105.234" rx="0.536078" ry="0.532163" fill="white"/>
<path fill-rule="evenodd" clip-rule="evenodd" d="M140.918 89.1442C138.38 89.9018 135.826 91.9986 134.607 94.3246C133.708 96.0402 133.613 99.9743 134.42 102.102C136.506 107.607 143.598 110.019 148.957 107.046C151.64 105.558 151.927 105.035 150.853 103.592C150.191 102.704 149.917 102.646 149.095 103.222C145.17 105.969 141.707 105.911 138.829 103.047C137.318 101.544 137.079 100.935 137.079 98.6078C137.079 96.4939 137.378 95.5553 138.465 94.2688C140.789 91.5148 144.848 91.0632 148.248 93.1799C149.182 93.7608 149.529 93.7608 150.232 93.1793C151.589 92.0566 151.233 91.0922 149.063 90.0092C146.234 88.5971 143.663 88.3243 140.918 89.1442ZM203.769 88.5109C198.3 89.7405 194.686 94.6476 195.722 99.4349C197.135 105.965 202.595 109.391 208.706 107.582C215.854 105.465 218.321 96.8517 213.295 91.5564C210.766 88.8921 207.176 87.7441 203.769 88.5109ZM74.059 98.4961V108.178H81.3305H88.602V106.567V104.956H82.9464H77.2908V102.565V100.172L80.9265 100.014C84.447 99.86 84.5677 99.8084 84.7325 98.3785L84.9033 96.9019H81.0968H77.2908V94.4857V92.0695H82.4433H87.5964L87.4257 90.5929L87.2555 89.1163L80.6572 88.9654L74.059 88.8145V98.4961ZM91.1966 89.1125C90.651 89.6747 91.8914 92.0695 92.7285 92.0695C93.2989 92.0695 93.4497 93.7512 93.4497 100.124V108.178H97.7237C102.402 108.178 104.369 107.646 106.293 105.86C108.308 103.99 109.238 101.69 109.284 98.4639C109.318 96.0477 109.039 95.0291 107.854 93.2438C105.69 89.9829 103.842 89.2398 97.2201 88.9665C94.1095 88.8382 91.3991 88.9042 91.1966 89.1125ZM113.05 89.6135C112.873 90.0758 112.822 93.2942 112.938 96.7656C113.178 103.924 113.913 105.98 116.755 107.449C119.087 108.654 123.923 108.657 126.195 107.454C129.549 105.679 130.108 103.986 129.948 96.0965L129.807 89.1163H128.461H127.114L126.845 96.0965C126.697 99.9357 126.39 103.361 126.164 103.709C125.495 104.736 122.065 105.625 120.151 105.267C116.873 104.654 116.373 103.507 116.072 95.9086C115.813 89.3627 115.759 89.1099 114.589 88.9445C113.861 88.8414 113.244 89.1099 113.05 89.6135ZM160.554 90.2911C160.784 91.4509 159.971 93.5815 157.046 99.4782C154.952 103.701 153.238 107.386 153.238 107.667C153.238 108.736 156.334 108.184 157.143 106.97C157.861 105.891 158.473 105.742 162.851 105.574C167.687 105.39 167.764 105.407 168.393 106.782C168.862 107.808 169.436 108.178 170.56 108.178C171.401 108.178 172.09 107.961 172.09 107.696C172.09 107.43 170.178 103.142 167.842 98.1648C163.779 89.5099 163.522 89.1088 161.924 88.9488C160.353 88.7909 160.271 88.8715 160.554 90.2911ZM210.363 93.1635C212.362 94.661 212.912 96.2546 212.498 99.341C211.957 103.357 207.713 105.923 203.76 104.622C201.274 103.804 198.652 100.738 198.652 98.6467C198.652 92.4858 205.3 89.3732 210.363 93.1635ZM104.357 94.1039C106.409 96.1492 106.823 99.1571 105.408 101.734C104.113 104.095 102.494 104.938 99.24 104.948L96.6815 104.956V98.4376V91.9191L99.7393 92.2338C102.15 92.4818 103.127 92.8776 104.357 94.1039ZM164.576 98.567C165.489 100.369 166.159 101.911 166.065 101.993C165.972 102.075 164.415 102.245 162.607 102.37L159.318 102.597L160.936 98.9439C161.827 96.9352 162.636 95.2911 162.736 95.2911C162.836 95.2911 163.664 96.7656 164.576 98.567Z" fill="white"/>
<path fill-rule="evenodd" clip-rule="evenodd" d="M173.76 88.884C173.215 89.4462 174.455 91.8409 175.292 91.8409C175.863 91.8409 176.014 93.5227 176.014 99.8951V107.949H180.288C184.966 107.949 186.933 107.417 188.857 105.631C190.872 103.762 191.802 101.461 191.848 98.2354C191.882 95.8191 191.603 94.8006 190.418 93.0152C188.253 89.7544 186.406 89.0113 179.784 88.738C176.673 88.6096 173.963 88.6757 173.76 88.884ZM187.972 101.506C189.387 98.9286 188.973 95.9206 186.921 93.8754C185.691 92.649 184.714 92.2533 182.303 92.0053L179.245 91.6906V98.2354V104.728L181.804 104.719C185.058 104.71 186.677 103.866 187.972 101.506Z" fill="white"/>
<ellipse cx="53.5952" cy="152.019" rx="0.938136" ry="0.931286" fill="#A1ACB2"/>
<ellipse cx="63.7807" cy="168.516" rx="0.938136" ry="0.931286" fill="#A1ACB2"/>
<ellipse cx="43.1417" cy="169.314" rx="0.938136" ry="0.931286" fill="#A1ACB2"/>
<ellipse cx="56.2756" cy="152.019" rx="0.938136" ry="0.931286" fill="#A1ACB2"/>
<ellipse cx="62.7085" cy="171.177" rx="0.938136" ry="0.931286" fill="#A1ACB2"/>
<ellipse cx="41.8015" cy="166.92" rx="0.938136" ry="0.931286" fill="#A1ACB2"/>
<ellipse cx="54.8014" cy="154.547" rx="0.804117" ry="0.798245" fill="#A1ACB2"/>
<ellipse cx="60.9663" cy="168.649" rx="0.804117" ry="0.798245" fill="#A1ACB2"/>
<ellipse cx="44.3479" cy="166.787" rx="0.804117" ry="0.798245" fill="#A1ACB2"/>
<ellipse cx="58.956" cy="152.817" rx="0.670097" ry="0.665204" fill="#A1ACB2"/>
<ellipse cx="40.9974" cy="164.259" rx="0.670097" ry="0.665204" fill="#A1ACB2"/>
<ellipse cx="57.3478" cy="154.946" rx="0.670097" ry="0.665204" fill="#A1ACB2"/>
<ellipse cx="43.6778" cy="164.525" rx="0.670097" ry="0.665204" fill="#A1ACB2"/>
<ellipse cx="61.1003" cy="153.882" rx="0.670097" ry="0.665204" fill="#A1ACB2"/>
<ellipse cx="40.7294" cy="161.598" rx="0.670097" ry="0.665204" fill="#A1ACB2"/>
<ellipse cx="61.1003" cy="173.039" rx="0.670097" ry="0.665204" fill="#A1ACB2"/>
<ellipse cx="59.6261" cy="156.143" rx="0.536078" ry="0.532163" fill="#A1ACB2"/>
<ellipse cx="43.2757" cy="161.997" rx="0.536078" ry="0.532163" fill="#A1ACB2"/>
<ellipse cx="59.6261" cy="170.778" rx="0.536078" ry="0.532163" fill="#A1ACB2"/>
<ellipse cx="56.4096" cy="157.208" rx="0.536078" ry="0.532163" fill="#A1ACB2"/>
<ellipse cx="45.9561" cy="164.126" rx="0.536078" ry="0.532163" fill="#A1ACB2"/>
<ellipse cx="58.0178" cy="168.915" rx="0.536078" ry="0.532163" fill="#A1ACB2"/>
<ellipse cx="59.09" cy="158.272" rx="0.536078" ry="0.532163" fill="#A1ACB2"/>
<ellipse cx="45.6881" cy="161.465" rx="0.536078" ry="0.532163" fill="#A1ACB2"/>
<ellipse cx="55.3375" cy="173.439" rx="0.536078" ry="0.532163" fill="#A1ACB2"/>
<ellipse cx="56.1416" cy="171.044" rx="0.536078" ry="0.532163" fill="#A1ACB2"/>
<ellipse cx="61.5024" cy="157.74" rx="0.536078" ry="0.532163" fill="#A1ACB2"/>
<ellipse cx="44.0798" cy="159.602" rx="0.536078" ry="0.532163" fill="#A1ACB2"/>
<ellipse cx="53.7292" cy="176.099" rx="0.536078" ry="0.532163" fill="#A1ACB2"/>
<ellipse cx="57.7498" cy="172.374" rx="0.536078" ry="0.532163" fill="#A1ACB2"/>
<ellipse cx="63.1106" cy="155.877" rx="0.536078" ry="0.532163" fill="#A1ACB2"/>
<ellipse cx="41.3994" cy="159.07" rx="0.536078" ry="0.532163" fill="#A1ACB2"/>
<ellipse cx="58.822" cy="174.503" rx="0.536078" ry="0.532163" fill="#A1ACB2"/>
<ellipse cx="61.9044" cy="167.186" rx="0.134019" ry="0.133041" fill="#A1ACB2"/>
<ellipse cx="51.987" cy="154.414" rx="0.134019" ry="0.133041" fill="#A1ACB2"/>
<ellipse cx="46.6262" cy="169.314" rx="0.134019" ry="0.133041" fill="#A1ACB2"/>
<ellipse cx="65.2549" cy="165.722" rx="0.268039" ry="0.266082" fill="#A1ACB2"/>
<ellipse cx="50.7808" cy="156.942" rx="0.268039" ry="0.266082" fill="#A1ACB2"/>
<ellipse cx="51.5849" cy="151.886" rx="0.268039" ry="0.266082" fill="#A1ACB2"/>
<ellipse cx="48.1004" cy="171.31" rx="0.268039" ry="0.266082" fill="#A1ACB2"/>
<ellipse cx="62.8426" cy="164.924" rx="0.268039" ry="0.266082" fill="#A1ACB2"/>
<ellipse cx="49.4406" cy="154.547" rx="0.268039" ry="0.266082" fill="#A1ACB2"/>
<ellipse cx="44.8839" cy="171.044" rx="0.268039" ry="0.266082" fill="#A1ACB2"/>
<ellipse cx="60.1622" cy="164.658" rx="0.268039" ry="0.266082" fill="#A1ACB2"/>
<ellipse cx="49.4406" cy="169.181" rx="0.268039" ry="0.266082" fill="#A1ACB2"/>
<ellipse cx="60.5642" cy="162.396" rx="0.402058" ry="0.399123" fill="#A1ACB2"/>
<ellipse cx="48.5025" cy="157.873" rx="0.402058" ry="0.399123" fill="#A1ACB2"/>
<ellipse cx="47.1623" cy="155.744" rx="0.402058" ry="0.399123" fill="#A1ACB2"/>
<ellipse cx="48.5025" cy="174.636" rx="0.402058" ry="0.399123" fill="#A1ACB2"/>
<ellipse cx="51.4509" cy="170.379" rx="0.402058" ry="0.399123" fill="#A1ACB2"/>
<ellipse cx="63.2446" cy="162.396" rx="0.402058" ry="0.399123" fill="#A1ACB2"/>
<ellipse cx="46.6262" cy="153.083" rx="0.402058" ry="0.399123" fill="#A1ACB2"/>
<ellipse cx="50.1107" cy="172.507" rx="0.402058" ry="0.399123" fill="#A1ACB2"/>
<ellipse cx="65.657" cy="163.194" rx="0.402058" ry="0.399123" fill="#A1ACB2"/>
<ellipse cx="48.7705" cy="152.285" rx="0.402058" ry="0.399123" fill="#A1ACB2"/>
<ellipse cx="46.6262" cy="173.306" rx="0.402058" ry="0.399123" fill="#A1ACB2"/>
<ellipse cx="65.5229" cy="160.401" rx="0.536078" ry="0.532163" fill="#A1ACB2"/>
<ellipse cx="52.6571" cy="173.172" rx="0.536078" ry="0.532163" fill="#A1ACB2"/>
<ellipse cx="62.8426" cy="159.868" rx="0.536078" ry="0.532163" fill="#A1ACB2"/>
<ellipse cx="45.152" cy="157.474" rx="0.536078" ry="0.532163" fill="#A1ACB2"/>
<ellipse cx="51.0489" cy="175.567" rx="0.536078" ry="0.532163" fill="#A1ACB2"/>
<ellipse cx="64.7188" cy="158.006" rx="0.536078" ry="0.532163" fill="#A1ACB2"/>
<ellipse cx="44.3479" cy="154.813" rx="0.536078" ry="0.532163" fill="#A1ACB2"/>
<ellipse cx="42.4716" cy="156.675" rx="0.536078" ry="0.532163" fill="#A1ACB2"/>
<ellipse cx="56.4096" cy="175.833" rx="0.536078" ry="0.532163" fill="#A1ACB2"/>
<ellipse cx="60.1622" cy="160.135" rx="0.536078" ry="0.532163" fill="#A1ACB2"/>
<ellipse cx="46.7602" cy="159.602" rx="0.536078" ry="0.532163" fill="#A1ACB2"/>
<ellipse cx="53.7292" cy="170.778" rx="0.536078" ry="0.532163" fill="#A1ACB2"/>
<path fill-rule="evenodd" clip-rule="evenodd" d="M140.918 154.688C138.38 155.446 135.826 157.542 134.607 159.868C133.708 161.584 133.613 165.518 134.42 167.646C136.506 173.151 143.598 175.563 148.957 172.59C151.64 171.102 151.927 170.579 150.853 169.136C150.191 168.247 149.917 168.189 149.095 168.766C145.17 171.513 141.707 171.455 138.829 168.591C137.318 167.088 137.079 166.479 137.079 164.152C137.079 162.038 137.378 161.099 138.465 159.813C140.789 157.059 144.848 156.607 148.248 158.724C149.182 159.305 149.529 159.305 150.232 158.723C151.589 157.6 151.233 156.636 149.063 155.553C146.234 154.141 143.663 153.868 140.918 154.688ZM203.769 154.055C198.3 155.284 194.686 160.191 195.722 164.979C197.135 171.509 202.595 174.935 208.706 173.126C215.854 171.009 218.321 162.396 213.295 157.1C210.766 154.436 207.176 153.288 203.769 154.055ZM74.059 164.04V173.722H81.3305H88.602V172.111V170.5H82.9464H77.2908V168.108V165.716L80.9265 165.558C84.447 165.404 84.5677 165.352 84.7325 163.922L84.9033 162.446H81.0968H77.2908V160.03V157.613H82.4433H87.5964L87.4257 156.137L87.2555 154.66L80.6572 154.509L74.059 154.358V164.04ZM91.1966 154.656C90.651 155.219 91.8914 157.613 92.7285 157.613C93.2989 157.613 93.4497 159.295 93.4497 165.667V173.722H97.7237C102.402 173.722 104.369 173.189 106.293 171.404C108.308 169.534 109.238 167.234 109.284 164.008C109.318 161.592 109.039 160.573 107.854 158.788C105.69 155.527 103.842 154.784 97.2201 154.51C94.1095 154.382 91.3991 154.448 91.1966 154.656ZM113.05 155.157C112.873 155.62 112.822 158.838 112.938 162.309C113.178 169.468 113.913 171.524 116.755 172.992C119.087 174.198 123.923 174.2 126.195 172.998C129.549 171.223 130.108 169.53 129.948 161.64L129.807 154.66H128.461H127.114L126.845 161.64C126.697 165.479 126.39 168.905 126.164 169.253C125.495 170.28 122.065 171.169 120.151 170.811C116.873 170.198 116.373 169.051 116.072 161.452C115.813 154.907 115.759 154.654 114.589 154.488C113.861 154.385 113.244 154.654 113.05 155.157ZM160.554 155.835C160.784 156.995 159.971 159.125 157.046 165.022C154.952 169.245 153.238 172.93 153.238 173.21C153.238 174.28 156.334 173.727 157.143 172.513C157.861 171.435 158.473 171.285 162.851 171.118C167.687 170.934 167.764 170.95 168.393 172.326C168.862 173.352 169.436 173.722 170.56 173.722C171.401 173.722 172.09 173.505 172.09 173.239C172.09 172.974 170.178 168.686 167.842 163.709C163.779 155.054 163.522 154.653 161.924 154.493C160.353 154.335 160.271 154.415 160.554 155.835ZM210.363 158.707C212.362 160.205 212.912 161.798 212.498 164.885C211.957 168.901 207.713 171.467 203.76 170.166C201.274 169.348 198.652 166.281 198.652 164.191C198.652 158.03 205.3 154.917 210.363 158.707ZM104.357 159.648C106.409 161.693 106.823 164.701 105.408 167.278C104.113 169.639 102.494 170.482 99.24 170.492L96.6815 170.5V163.981V157.463L99.7393 157.778C102.15 158.026 103.127 158.421 104.357 159.648ZM164.576 164.111C165.489 165.913 166.159 167.454 166.065 167.537C165.972 167.619 164.415 167.789 162.607 167.914L159.318 168.141L160.936 164.488C161.827 162.479 162.636 160.835 162.736 160.835C162.836 160.835 163.664 162.309 164.576 164.111Z" fill="#A1ACB2"/>
<path fill-rule="evenodd" clip-rule="evenodd" d="M173.76 154.428C173.215 154.99 174.455 157.385 175.292 157.385C175.863 157.385 176.014 159.066 176.014 165.439V173.493H180.288C184.966 173.493 186.933 172.961 188.857 171.175C190.872 169.305 191.802 167.005 191.848 163.779C191.882 161.363 191.603 160.344 190.418 158.559C188.253 155.298 186.406 154.555 179.784 154.282C176.673 154.153 173.963 154.22 173.76 154.428ZM187.972 167.05C189.387 164.472 188.973 161.464 186.921 159.419C185.691 158.193 184.714 157.797 182.303 157.549L179.245 157.234V163.779V170.271L181.804 170.263C185.058 170.254 186.677 169.41 187.972 167.05Z" fill="#A1ACB2"/>
<ellipse cx="53.5952" cy="217.563" rx="0.938136" ry="0.931286" fill="#5ECCE9"/>
<ellipse cx="63.7807" cy="234.06" rx="0.938136" ry="0.931286" fill="#5ECCE9"/>
<ellipse cx="43.1417" cy="234.858" rx="0.938136" ry="0.931286" fill="#5ECCE9"/>
<ellipse cx="56.2756" cy="217.563" rx="0.938136" ry="0.931286" fill="#5ECCE9"/>
<ellipse cx="62.7085" cy="236.721" rx="0.938136" ry="0.931286" fill="#5ECCE9"/>
<ellipse cx="41.8015" cy="232.463" rx="0.938136" ry="0.931286" fill="#5ECCE9"/>
<ellipse cx="54.8014" cy="220.091" rx="0.804117" ry="0.798245" fill="#5ECCE9"/>
<ellipse cx="60.9663" cy="234.193" rx="0.804117" ry="0.798245" fill="#5ECCE9"/>
<ellipse cx="44.3479" cy="232.33" rx="0.804117" ry="0.798245" fill="#5ECCE9"/>
<ellipse cx="58.956" cy="218.361" rx="0.670097" ry="0.665204" fill="#5ECCE9"/>
<ellipse cx="40.9974" cy="229.803" rx="0.670097" ry="0.665204" fill="#5ECCE9"/>
<ellipse cx="57.3478" cy="220.49" rx="0.670097" ry="0.665204" fill="#5ECCE9"/>
<ellipse cx="43.6778" cy="230.069" rx="0.670097" ry="0.665204" fill="#5ECCE9"/>
<ellipse cx="61.1003" cy="219.425" rx="0.670097" ry="0.665204" fill="#5ECCE9"/>
<ellipse cx="40.7294" cy="227.142" rx="0.670097" ry="0.665204" fill="#5ECCE9"/>
<ellipse cx="61.1003" cy="238.583" rx="0.670097" ry="0.665204" fill="#5ECCE9"/>
<ellipse cx="59.6261" cy="221.687" rx="0.536078" ry="0.532163" fill="#5ECCE9"/>
<ellipse cx="43.2757" cy="227.541" rx="0.536078" ry="0.532163" fill="#5ECCE9"/>
<ellipse cx="59.6261" cy="236.322" rx="0.536078" ry="0.532163" fill="#5ECCE9"/>
<ellipse cx="56.4096" cy="222.751" rx="0.536078" ry="0.532163" fill="#5ECCE9"/>
<ellipse cx="45.9561" cy="229.67" rx="0.536078" ry="0.532163" fill="#5ECCE9"/>
<ellipse cx="58.0178" cy="234.459" rx="0.536078" ry="0.532163" fill="#5ECCE9"/>
<ellipse cx="59.09" cy="223.816" rx="0.536078" ry="0.532163" fill="#5ECCE9"/>
<ellipse cx="45.6881" cy="227.009" rx="0.536078" ry="0.532163" fill="#5ECCE9"/>
<ellipse cx="55.3375" cy="238.982" rx="0.536078" ry="0.532163" fill="#5ECCE9"/>
<ellipse cx="56.1416" cy="236.588" rx="0.536078" ry="0.532163" fill="#5ECCE9"/>
<ellipse cx="61.5024" cy="223.284" rx="0.536078" ry="0.532163" fill="#5ECCE9"/>
<ellipse cx="44.0798" cy="225.146" rx="0.536078" ry="0.532163" fill="#5ECCE9"/>
<ellipse cx="53.7292" cy="241.643" rx="0.536078" ry="0.532163" fill="#5ECCE9"/>
<ellipse cx="57.7498" cy="237.918" rx="0.536078" ry="0.532163" fill="#5ECCE9"/>
<ellipse cx="63.1106" cy="221.421" rx="0.536078" ry="0.532163" fill="#5ECCE9"/>
<ellipse cx="41.3994" cy="224.614" rx="0.536078" ry="0.532163" fill="#5ECCE9"/>
<ellipse cx="58.822" cy="240.047" rx="0.536078" ry="0.532163" fill="#5ECCE9"/>
<ellipse cx="61.9044" cy="232.729" rx="0.134019" ry="0.133041" fill="#5ECCE9"/>
<ellipse cx="51.987" cy="219.958" rx="0.134019" ry="0.133041" fill="#5ECCE9"/>
<ellipse cx="46.6262" cy="234.858" rx="0.134019" ry="0.133041" fill="#5ECCE9"/>
<ellipse cx="65.2549" cy="231.266" rx="0.268039" ry="0.266082" fill="#5ECCE9"/>
<ellipse cx="50.7808" cy="222.485" rx="0.268039" ry="0.266082" fill="#5ECCE9"/>
<ellipse cx="51.5849" cy="217.43" rx="0.268039" ry="0.266082" fill="#5ECCE9"/>
<ellipse cx="48.1004" cy="236.854" rx="0.268039" ry="0.266082" fill="#5ECCE9"/>
<ellipse cx="62.8426" cy="230.468" rx="0.268039" ry="0.266082" fill="#5ECCE9"/>
<ellipse cx="49.4406" cy="220.091" rx="0.268039" ry="0.266082" fill="#5ECCE9"/>
<ellipse cx="44.8839" cy="236.588" rx="0.268039" ry="0.266082" fill="#5ECCE9"/>
<ellipse cx="60.1622" cy="230.202" rx="0.268039" ry="0.266082" fill="#5ECCE9"/>
<ellipse cx="49.4406" cy="234.725" rx="0.268039" ry="0.266082" fill="#5ECCE9"/>
<ellipse cx="60.5642" cy="227.94" rx="0.402058" ry="0.399123" fill="#5ECCE9"/>
<ellipse cx="48.5025" cy="223.417" rx="0.402058" ry="0.399123" fill="#5ECCE9"/>
<ellipse cx="47.1623" cy="221.288" rx="0.402058" ry="0.399123" fill="#5ECCE9"/>
<ellipse cx="48.5025" cy="240.18" rx="0.402058" ry="0.399123" fill="#5ECCE9"/>
<ellipse cx="51.4509" cy="235.922" rx="0.402058" ry="0.399123" fill="#5ECCE9"/>
<ellipse cx="63.2446" cy="227.94" rx="0.402058" ry="0.399123" fill="#5ECCE9"/>
<ellipse cx="46.6262" cy="218.627" rx="0.402058" ry="0.399123" fill="#5ECCE9"/>
<ellipse cx="50.1107" cy="238.051" rx="0.402058" ry="0.399123" fill="#5ECCE9"/>
<ellipse cx="65.657" cy="228.738" rx="0.402058" ry="0.399123" fill="#5ECCE9"/>
<ellipse cx="48.7705" cy="217.829" rx="0.402058" ry="0.399123" fill="#5ECCE9"/>
<ellipse cx="46.6262" cy="238.849" rx="0.402058" ry="0.399123" fill="#5ECCE9"/>
<ellipse cx="65.5229" cy="225.944" rx="0.536078" ry="0.532163" fill="#5ECCE9"/>
<ellipse cx="52.6571" cy="238.716" rx="0.536078" ry="0.532163" fill="#5ECCE9"/>
<ellipse cx="62.8426" cy="225.412" rx="0.536078" ry="0.532163" fill="#5ECCE9"/>
<ellipse cx="45.152" cy="223.018" rx="0.536078" ry="0.532163" fill="#5ECCE9"/>
<ellipse cx="51.0489" cy="241.111" rx="0.536078" ry="0.532163" fill="#5ECCE9"/>
<ellipse cx="64.7188" cy="223.55" rx="0.536078" ry="0.532163" fill="#5ECCE9"/>
<ellipse cx="44.3479" cy="220.357" rx="0.536078" ry="0.532163" fill="#5ECCE9"/>
<ellipse cx="42.4716" cy="222.219" rx="0.536078" ry="0.532163" fill="#5ECCE9"/>
<ellipse cx="56.4096" cy="241.377" rx="0.536078" ry="0.532163" fill="#5ECCE9"/>
<ellipse cx="60.1622" cy="225.678" rx="0.536078" ry="0.532163" fill="#5ECCE9"/>
<ellipse cx="46.7602" cy="225.146" rx="0.536078" ry="0.532163" fill="#5ECCE9"/>
<ellipse cx="53.7292" cy="236.322" rx="0.536078" ry="0.532163" fill="#5ECCE9"/>
<path fill-rule="evenodd" clip-rule="evenodd" d="M140.918 220.232C138.38 220.99 135.826 223.086 134.607 225.412C133.708 227.128 133.613 231.062 134.42 233.19C136.506 238.695 143.598 241.107 148.957 238.134C151.64 236.646 151.927 236.123 150.853 234.68C150.191 233.791 149.917 233.733 149.095 234.309C145.17 237.057 141.707 236.998 138.829 234.135C137.318 232.631 137.079 232.023 137.079 229.695C137.079 227.582 137.378 226.643 138.465 225.356C140.789 222.602 144.848 222.151 148.248 224.268C149.182 224.849 149.529 224.849 150.232 224.267C151.589 223.144 151.233 222.18 149.063 221.097C146.234 219.685 143.663 219.412 140.918 220.232ZM203.769 219.599C198.3 220.828 194.686 225.735 195.722 230.523C197.135 237.053 202.595 240.479 208.706 238.67C215.854 236.553 218.321 227.939 213.295 222.644C210.766 219.98 207.176 218.832 203.769 219.599ZM74.059 229.584V239.265H81.3305H88.602V237.655V236.044H82.9464H77.2908V233.652V231.26L80.9265 231.102C84.447 230.948 84.5677 230.896 84.7325 229.466L84.9033 227.99H81.0968H77.2908V225.573V223.157H82.4433H87.5964L87.4257 221.681L87.2555 220.204L80.6572 220.053L74.059 219.902V229.584ZM91.1966 220.2C90.651 220.762 91.8914 223.157 92.7285 223.157C93.2989 223.157 93.4497 224.839 93.4497 231.211V239.265H97.7237C102.402 239.265 104.369 238.733 106.293 236.947C108.308 235.078 109.238 232.778 109.284 229.552C109.318 227.135 109.039 226.117 107.854 224.331C105.69 221.071 103.842 220.327 97.2201 220.054C94.1095 219.926 91.3991 219.992 91.1966 220.2ZM113.05 220.701C112.873 221.163 112.822 224.382 112.938 227.853C113.178 235.012 113.913 237.068 116.755 238.536C119.087 239.742 123.923 239.744 126.195 238.542C129.549 236.766 130.108 235.073 129.948 227.184L129.807 220.204H128.461H127.114L126.845 227.184C126.697 231.023 126.39 234.449 126.164 234.796C125.495 235.824 122.065 236.713 120.151 236.355C116.873 235.742 116.373 234.595 116.072 226.996C115.813 220.45 115.759 220.198 114.589 220.032C113.861 219.929 113.244 220.198 113.05 220.701ZM160.554 221.379C160.784 222.539 159.971 224.669 157.046 230.566C154.952 234.788 153.238 238.473 153.238 238.754C153.238 239.824 156.334 239.271 157.143 238.057C157.861 236.979 158.473 236.829 162.851 236.662C167.687 236.478 167.764 236.494 168.393 237.87C168.862 238.895 169.436 239.265 170.56 239.265C171.401 239.265 172.09 239.048 172.09 238.783C172.09 238.518 170.178 234.229 167.842 229.253C163.779 220.598 163.522 220.196 161.924 220.036C160.353 219.879 160.271 219.959 160.554 221.379ZM210.363 224.251C212.362 225.749 212.912 227.342 212.498 230.429C211.957 234.444 207.713 237.01 203.76 235.71C201.274 234.892 198.652 231.825 198.652 229.734C198.652 223.574 205.3 220.461 210.363 224.251ZM104.357 225.192C106.409 227.237 106.823 230.245 105.408 232.822C104.113 235.182 102.494 236.026 99.24 236.036L96.6815 236.044V229.525V223.007L99.7393 223.321C102.15 223.57 103.127 223.965 104.357 225.192ZM164.576 229.655C165.489 231.457 166.159 232.998 166.065 233.08C165.972 233.163 164.415 233.333 162.607 233.458L159.318 233.685L160.936 230.032C161.827 228.023 162.636 226.379 162.736 226.379C162.836 226.379 163.664 227.853 164.576 229.655Z" fill="#5ECCE9"/>
<path fill-rule="evenodd" clip-rule="evenodd" d="M173.76 219.972C173.215 220.534 174.455 222.929 175.292 222.929C175.863 222.929 176.014 224.61 176.014 230.983V239.037H180.288C184.966 239.037 186.933 238.505 188.857 236.719C190.872 234.849 191.802 232.549 191.848 229.323C191.882 226.907 191.603 225.888 190.418 224.103C188.253 220.842 186.406 220.099 179.784 219.826C176.673 219.697 173.963 219.763 173.76 219.972ZM187.972 232.594C189.387 230.016 188.973 227.008 186.921 224.963C185.691 223.737 184.714 223.341 182.303 223.093L179.245 222.778V229.323V235.815L181.804 235.807C185.058 235.797 186.677 234.954 187.972 232.594Z" fill="#5ECCE9"/>
<rect x="0.55925" y="0.5" width="254.882" height="261.175" rx="4.5" stroke="#9747FF" stroke-dasharray="10 5"/>
</svg>
