<svg width="57" height="56" viewBox="0 0 57 56" fill="none" xmlns="http://www.w3.org/2000/svg">
<ellipse cx="29.6752" cy="2.0417" rx="2.05668" ry="2.04167" fill="#383838"/>
<ellipse cx="52.0049" cy="38.2084" rx="2.05668" ry="2.04167" fill="#383838"/>
<ellipse cx="6.7579" cy="39.9584" rx="2.05668" ry="2.04167" fill="#383838"/>
<ellipse cx="35.5515" cy="2.0417" rx="2.05668" ry="2.04167" fill="#383838"/>
<ellipse cx="49.6544" cy="44.0417" rx="2.05668" ry="2.04167" fill="#383838"/>
<ellipse cx="3.81978" cy="34.7084" rx="2.05668" ry="2.04167" fill="#383838"/>
<ellipse cx="32.3196" cy="7.58331" rx="1.76287" ry="1.75" fill="#383838"/>
<ellipse cx="45.8349" cy="38.5" rx="1.76287" ry="1.75" fill="#383838"/>
<ellipse cx="9.40223" cy="34.4167" rx="1.76287" ry="1.75" fill="#383838"/>
<ellipse cx="41.4277" cy="3.79183" rx="1.46906" ry="1.45833" fill="#383838"/>
<ellipse cx="2.05692" cy="28.8751" rx="1.46906" ry="1.45833" fill="#383838"/>
<ellipse cx="37.902" cy="8.45842" rx="1.46906" ry="1.45833" fill="#383838"/>
<ellipse cx="7.93316" cy="29.4584" rx="1.46906" ry="1.45833" fill="#383838"/>
<ellipse cx="46.1287" cy="6.12505" rx="1.46906" ry="1.45833" fill="#383838"/>
<ellipse cx="1.4693" cy="23.0416" rx="1.46906" ry="1.45833" fill="#383838"/>
<ellipse cx="46.1287" cy="48.125" rx="1.46906" ry="1.45833" fill="#383838"/>
<ellipse cx="42.8968" cy="11.0834" rx="1.17525" ry="1.16667" fill="#383838"/>
<ellipse cx="7.05173" cy="23.9167" rx="1.17525" ry="1.16667" fill="#383838"/>
<ellipse cx="42.8968" cy="43.1667" rx="1.17525" ry="1.16667" fill="#383838"/>
<ellipse cx="35.8453" cy="13.4168" rx="1.17525" ry="1.16667" fill="#383838"/>
<ellipse cx="12.928" cy="28.5834" rx="1.17525" ry="1.16667" fill="#383838"/>
<ellipse cx="39.371" cy="39.0834" rx="1.17525" ry="1.16667" fill="#383838"/>
<ellipse cx="41.7215" cy="15.7501" rx="1.17525" ry="1.16667" fill="#383838"/>
<ellipse cx="12.3403" cy="22.75" rx="1.17525" ry="1.16667" fill="#383838"/>
<ellipse cx="33.4948" cy="49" rx="1.17525" ry="1.16667" fill="#383838"/>
<ellipse cx="35.2577" cy="43.75" rx="1.17525" ry="1.16667" fill="#383838"/>
<ellipse cx="47.0102" cy="14.5834" rx="1.17525" ry="1.16667" fill="#383838"/>
<ellipse cx="8.81461" cy="18.6667" rx="1.17525" ry="1.16667" fill="#383838"/>
<ellipse cx="29.9691" cy="54.8334" rx="1.17525" ry="1.16667" fill="#383838"/>
<ellipse cx="38.7834" cy="46.6667" rx="1.17525" ry="1.16667" fill="#383838"/>
<ellipse cx="50.5359" cy="10.5" rx="1.17525" ry="1.16667" fill="#383838"/>
<ellipse cx="2.93834" cy="17.5001" rx="1.17525" ry="1.16667" fill="#383838"/>
<ellipse cx="41.1339" cy="51.3334" rx="1.17525" ry="1.16667" fill="#383838"/>
<ellipse cx="47.8916" cy="35.2917" rx="0.293812" ry="0.291667" fill="#383838"/>
<ellipse cx="26.1495" cy="7.29176" rx="0.293812" ry="0.291667" fill="#383838"/>
<ellipse cx="14.397" cy="39.9584" rx="0.293812" ry="0.291667" fill="#383838"/>
<ellipse cx="55.2369" cy="32.0834" rx="0.587624" ry="0.583333" fill="#383838"/>
<ellipse cx="23.5052" cy="12.8334" rx="0.587624" ry="0.583333" fill="#383838"/>
<ellipse cx="25.268" cy="1.75005" rx="0.587624" ry="0.583333" fill="#383838"/>
<ellipse cx="17.6289" cy="44.3334" rx="0.587624" ry="0.583333" fill="#383838"/>
<ellipse cx="49.9483" cy="30.3334" rx="0.587624" ry="0.583333" fill="#383838"/>
<ellipse cx="20.5671" cy="7.58343" rx="0.587624" ry="0.583333" fill="#383838"/>
<ellipse cx="10.5774" cy="43.7501" rx="0.587624" ry="0.583333" fill="#383838"/>
<ellipse cx="44.072" cy="29.75" rx="0.587624" ry="0.583333" fill="#383838"/>
<ellipse cx="20.5671" cy="39.6667" rx="0.587624" ry="0.583333" fill="#383838"/>
<ellipse cx="44.9535" cy="24.7918" rx="0.881436" ry="0.875" fill="#383838"/>
<ellipse cx="18.5104" cy="14.8751" rx="0.881436" ry="0.875" fill="#383838"/>
<ellipse cx="15.5723" cy="10.2083" rx="0.881436" ry="0.875" fill="#383838"/>
<ellipse cx="18.5104" cy="51.625" rx="0.881436" ry="0.875" fill="#383838"/>
<ellipse cx="24.9742" cy="42.2917" rx="0.881436" ry="0.875" fill="#383838"/>
<ellipse cx="50.8297" cy="24.7918" rx="0.881436" ry="0.875" fill="#383838"/>
<ellipse cx="14.397" cy="4.375" rx="0.881436" ry="0.875" fill="#383838"/>
<ellipse cx="22.0361" cy="46.9584" rx="0.881436" ry="0.875" fill="#383838"/>
<ellipse cx="56.1183" cy="26.5417" rx="0.881436" ry="0.875" fill="#383838"/>
<ellipse cx="19.098" cy="2.625" rx="0.881436" ry="0.875" fill="#383838"/>
<ellipse cx="14.397" cy="48.7084" rx="0.881436" ry="0.875" fill="#383838"/>
<ellipse cx="55.8245" cy="20.4167" rx="1.17525" ry="1.16667" fill="#383838"/>
<ellipse cx="27.6186" cy="48.4167" rx="1.17525" ry="1.16667" fill="#383838"/>
<ellipse cx="49.9483" cy="19.2501" rx="1.17525" ry="1.16667" fill="#383838"/>
<ellipse cx="11.1651" cy="14.0001" rx="1.17525" ry="1.16667" fill="#383838"/>
<ellipse cx="24.0928" cy="53.6667" rx="1.17525" ry="1.16667" fill="#383838"/>
<ellipse cx="54.0616" cy="15.1668" rx="1.17525" ry="1.16667" fill="#383838"/>
<ellipse cx="9.40222" cy="8.16676" rx="1.17525" ry="1.16667" fill="#383838"/>
<ellipse cx="5.28883" cy="12.25" rx="1.17525" ry="1.16667" fill="#383838"/>
<ellipse cx="35.8453" cy="54.25" rx="1.17525" ry="1.16667" fill="#383838"/>
<ellipse cx="44.0721" cy="19.8334" rx="1.17525" ry="1.16667" fill="#383838"/>
<ellipse cx="14.6908" cy="18.6667" rx="1.17525" ry="1.16667" fill="#383838"/>
<ellipse cx="29.9691" cy="43.1667" rx="1.17525" ry="1.16667" fill="#383838"/>
</svg>
