<svg width="24" height="25" viewBox="0 0 24 25" fill="none" xmlns="http://www.w3.org/2000/svg">
<rect width="24" height="25" fill="#E5E5E5"/>
<g id="LOGIN - 21 UI">
<path d="M-1297 -754C-1297 -755.105 -1296.1 -756 -1295 -756H7191C7192.1 -756 7193 -755.105 7193 -754V8118C7193 8119.1 7192.1 8120 7191 8120H-1295C-1296.1 8120 -1297 8119.1 -1297 8118V-754Z" fill="#F2F4F4"/>
<g id="ONBOARDING">
<path d="M-1033 -550C-1033 -551.105 -1032.1 -552 -1031 -552H1316C1317.1 -552 1318 -551.105 1318 -550V603C1318 604.105 1317.1 605 1316 605H-1031C-1032.1 605 -1033 604.105 -1033 603V-550Z" fill="#E8EEEE"/>
<g id="onboarding / first">
<rect width="390" height="844" transform="translate(-342 -369)" fill="url(#paint0_linear_1_2)"/>
<g id="Frame 2">
<g id="chevron-right 1">
<path id="Vector" d="M8.59003 17.1239L13.17 12.5439L8.59003 7.95385L10 6.54385L16 12.5439L10 18.5439L8.59003 17.1239Z" fill="#383838"/>
</g>
</g>
</g>
<path d="M-1031 -544H1316V-560H-1031V-544ZM1310 -550V603H1326V-550H1310ZM1316 597H-1031V613H1316V597ZM-1025 603V-550H-1041V603H-1025ZM-1031 597C-1027.69 597 -1025 599.687 -1025 603H-1041C-1041 608.523 -1036.52 613 -1031 613V597ZM1310 603C1310 599.686 1312.69 597 1316 597V613C1321.52 613 1326 608.523 1326 603H1310ZM1316 -544C1312.69 -544 1310 -546.687 1310 -550H1326C1326 -555.523 1321.52 -560 1316 -560V-544ZM-1031 -560C-1036.52 -560 -1041 -555.523 -1041 -550H-1025C-1025 -546.686 -1027.69 -544 -1031 -544V-560Z" fill="#E9F1F1"/>
</g>
<path d="M-1295 -740H7191V-772H-1295V-740ZM7177 -754V8118H7209V-754H7177ZM7191 8104H-1295V8136H7191V8104ZM-1281 8118V-754H-1313V8118H-1281ZM-1295 8104C-1287.27 8104 -1281 8110.27 -1281 8118H-1313C-1313 8127.94 -1304.94 8136 -1295 8136V8104ZM7177 8118C7177 8110.27 7183.27 8104 7191 8104V8136C7200.94 8136 7209 8127.94 7209 8118H7177ZM7191 -740C7183.27 -740 7177 -746.269 7177 -754H7209C7209 -763.94 7200.94 -772 7191 -772V-740ZM-1295 -772C-1304.94 -772 -1313 -763.943 -1313 -754H-1281C-1281 -746.266 -1287.27 -740 -1295 -740V-772Z" fill="#E9F1F1"/>
</g>
<defs>
<linearGradient id="paint0_linear_1_2" x1="195" y1="0" x2="195" y2="844" gradientUnits="userSpaceOnUse">
<stop stop-color="#C9E5EC"/>
<stop offset="1" stop-color="white"/>
<stop offset="1" stop-color="white"/>
</linearGradient>
</defs>
</svg>
